<?xml version="1.0" encoding="utf-8" standalone="no"?>
<!DOCTYPE svg PUBLIC "-//W3C//DTD SVG 1.1//EN"
  "http://www.w3.org/Graphics/SVG/1.1/DTD/svg11.dtd">
<svg xmlns:xlink="http://www.w3.org/1999/xlink" width="495.765625pt" height="278.719375pt" viewBox="0 0 495.765625 278.719375" xmlns="http://www.w3.org/2000/svg" version="1.1">
 <metadata>
  <rdf:RDF xmlns:dc="http://purl.org/dc/elements/1.1/" xmlns:cc="http://creativecommons.org/ns#" xmlns:rdf="http://www.w3.org/1999/02/22-rdf-syntax-ns#">
   <cc:Work>
    <dc:type rdf:resource="http://purl.org/dc/dcmitype/StillImage"/>
    <dc:date>2026-09-10T19:50:24.621365</dc:date>
    <dc:format>image/svg+xml</dc:format>
    <dc:creator>
     <cc:Agent>
      <dc:title>Matplotlib v3.10.8, https://matplotlib.org/</dc:title>
     </cc:Agent>
    </dc:creator>
   </cc:Work>
  </rdf:RDF>
 </metadata>
 <defs>
  <style type="text/css">*{stroke-linejoin: round; stroke-linecap: butt}</style>
 </defs>
 <g id="figure_1">
  <g id="patch_1">
   <path d="M 0 278.719375 
L 495.765625 278.719375 
L 495.765625 0 
L 0 0 
z
" style="fill: #ffffff"/>
  </g>
  <g id="axes_1">
   <g id="patch_2">
    <path d="M 42.815625 239.56 
L 488.565625 239.56 
L 488.565625 7.2 
L 42.815625 7.2 
z
" style="fill: #ffffff"/>
   </g>
   <g id="matplotlib.axis_1">
    <g id="xtick_1">
     <g id="line2d_1">
      <defs>
       <path id="m97f9ee33f1" d="M 0 0 
L 0 3.5 
" style="stroke: #000000; stroke-width: 0.8"/>
      </defs>
      <g>
       <use xlink:href="#m97f9ee33f1" x="63.076989" y="239.56" style="stroke: #000000; stroke-width: 0.8"/>
      </g>
     </g>
     <g id="text_1">
      <text style="font-size: 10px; font-family: 'Microsoft YaHei'; text-anchor: middle" x="63.076989" y="254.55375" transform="rotate(-0 63.076989 254.55375)">0</text>
     </g>
    </g>
    <g id="xtick_2">
     <g id="line2d_2">
      <g>
       <use xlink:href="#m97f9ee33f1" x="119.358554" y="239.56" style="stroke: #000000; stroke-width: 0.8"/>
      </g>
     </g>
     <g id="text_2">
      <text style="font-size: 10px; font-family: 'Microsoft YaHei'; text-anchor: middle" x="119.358554" y="254.55375" transform="rotate(-0 119.358554 254.55375)">10</text>
     </g>
    </g>
    <g id="xtick_3">
     <g id="line2d_3">
      <g>
       <use xlink:href="#m97f9ee33f1" x="175.64012" y="239.56" style="stroke: #000000; stroke-width: 0.8"/>
      </g>
     </g>
     <g id="text_3">
      <text style="font-size: 10px; font-family: 'Microsoft YaHei'; text-anchor: middle" x="175.64012" y="254.55375" transform="rotate(-0 175.64012 254.55375)">20</text>
     </g>
    </g>
    <g id="xtick_4">
     <g id="line2d_4">
      <g>
       <use xlink:href="#m97f9ee33f1" x="231.921686" y="239.56" style="stroke: #000000; stroke-width: 0.8"/>
      </g>
     </g>
     <g id="text_4">
      <text style="font-size: 10px; font-family: 'Microsoft YaHei'; text-anchor: middle" x="231.921686" y="254.55375" transform="rotate(-0 231.921686 254.55375)">30</text>
     </g>
    </g>
    <g id="xtick_5">
     <g id="line2d_5">
      <g>
       <use xlink:href="#m97f9ee33f1" x="288.203251" y="239.56" style="stroke: #000000; stroke-width: 0.8"/>
      </g>
     </g>
     <g id="text_5">
      <text style="font-size: 10px; font-family: 'Microsoft YaHei'; text-anchor: middle" x="288.203251" y="254.55375" transform="rotate(-0 288.203251 254.55375)">40</text>
     </g>
    </g>
    <g id="xtick_6">
     <g id="line2d_6">
      <g>
       <use xlink:href="#m97f9ee33f1" x="344.484817" y="239.56" style="stroke: #000000; stroke-width: 0.8"/>
      </g>
     </g>
     <g id="text_6">
      <text style="font-size: 10px; font-family: 'Microsoft YaHei'; text-anchor: middle" x="344.484817" y="254.55375" transform="rotate(-0 344.484817 254.55375)">50</text>
     </g>
    </g>
    <g id="xtick_7">
     <g id="line2d_7">
      <g>
       <use xlink:href="#m97f9ee33f1" x="400.766383" y="239.56" style="stroke: #000000; stroke-width: 0.8"/>
      </g>
     </g>
     <g id="text_7">
      <text style="font-size: 10px; font-family: 'Microsoft YaHei'; text-anchor: middle" x="400.766383" y="254.55375" transform="rotate(-0 400.766383 254.55375)">60</text>
     </g>
    </g>
    <g id="xtick_8">
     <g id="line2d_8">
      <g>
       <use xlink:href="#m97f9ee33f1" x="457.047948" y="239.56" style="stroke: #000000; stroke-width: 0.8"/>
      </g>
     </g>
     <g id="text_8">
      <text style="font-size: 10px; font-family: 'Microsoft YaHei'; text-anchor: middle" x="457.047948" y="254.55375" transform="rotate(-0 457.047948 254.55375)">70</text>
     </g>
    </g>
    <g id="text_9">
     <text style="font-size: 10px; font-family: 'Microsoft YaHei'; text-anchor: middle" x="265.690625" y="269.033437" transform="rotate(-0 265.690625 269.033437)">时间 / h</text>
    </g>
   </g>
   <g id="matplotlib.axis_2">
    <g id="ytick_1">
     <g id="line2d_9">
      <defs>
       <path id="m7770de71e1" d="M 0 0 
L -3.5 0 
" style="stroke: #000000; stroke-width: 0.8"/>
      </defs>
      <g>
       <use xlink:href="#m7770de71e1" x="42.815625" y="228.471408" style="stroke: #000000; stroke-width: 0.8"/>
      </g>
     </g>
     <g id="text_10">
      <text style="font-size: 10px; font-family: 'Microsoft YaHei'; text-anchor: end" x="35.815625" y="232.468283" transform="rotate(-0 35.815625 232.468283)">1.2</text>
     </g>
    </g>
    <g id="ytick_2">
     <g id="line2d_10">
      <g>
       <use xlink:href="#m7770de71e1" x="42.815625" y="202.132709" style="stroke: #000000; stroke-width: 0.8"/>
      </g>
     </g>
     <g id="text_11">
      <text style="font-size: 10px; font-family: 'Microsoft YaHei'; text-anchor: end" x="35.815625" y="206.129584" transform="rotate(-0 35.815625 206.129584)">1.3</text>
     </g>
    </g>
    <g id="ytick_3">
     <g id="line2d_11">
      <g>
       <use xlink:href="#m7770de71e1" x="42.815625" y="175.79401" style="stroke: #000000; stroke-width: 0.8"/>
      </g>
     </g>
     <g id="text_12">
      <text style="font-size: 10px; font-family: 'Microsoft YaHei'; text-anchor: end" x="35.815625" y="179.790885" transform="rotate(-0 35.815625 179.790885)">1.4</text>
     </g>
    </g>
    <g id="ytick_4">
     <g id="line2d_12">
      <g>
       <use xlink:href="#m7770de71e1" x="42.815625" y="149.455312" style="stroke: #000000; stroke-width: 0.8"/>
      </g>
     </g>
     <g id="text_13">
      <text style="font-size: 10px; font-family: 'Microsoft YaHei'; text-anchor: end" x="35.815625" y="153.452187" transform="rotate(-0 35.815625 153.452187)">1.5</text>
     </g>
    </g>
    <g id="ytick_5">
     <g id="line2d_13">
      <g>
       <use xlink:href="#m7770de71e1" x="42.815625" y="123.116613" style="stroke: #000000; stroke-width: 0.8"/>
      </g>
     </g>
     <g id="text_14">
      <text style="font-size: 10px; font-family: 'Microsoft YaHei'; text-anchor: end" x="35.815625" y="127.113488" transform="rotate(-0 35.815625 127.113488)">1.6</text>
     </g>
    </g>
    <g id="ytick_6">
     <g id="line2d_14">
      <g>
       <use xlink:href="#m7770de71e1" x="42.815625" y="96.777914" style="stroke: #000000; stroke-width: 0.8"/>
      </g>
     </g>
     <g id="text_15">
      <text style="font-size: 10px; font-family: 'Microsoft YaHei'; text-anchor: end" x="35.815625" y="100.774789" transform="rotate(-0 35.815625 100.774789)">1.7</text>
     </g>
    </g>
    <g id="ytick_7">
     <g id="line2d_15">
      <g>
       <use xlink:href="#m7770de71e1" x="42.815625" y="70.439216" style="stroke: #000000; stroke-width: 0.8"/>
      </g>
     </g>
     <g id="text_16">
      <text style="font-size: 10px; font-family: 'Microsoft YaHei'; text-anchor: end" x="35.815625" y="74.436091" transform="rotate(-0 35.815625 74.436091)">1.8</text>
     </g>
    </g>
    <g id="ytick_8">
     <g id="line2d_16">
      <g>
       <use xlink:href="#m7770de71e1" x="42.815625" y="44.100517" style="stroke: #000000; stroke-width: 0.8"/>
      </g>
     </g>
     <g id="text_17">
      <text style="font-size: 10px; font-family: 'Microsoft YaHei'; text-anchor: end" x="35.815625" y="48.097392" transform="rotate(-0 35.815625 48.097392)">1.9</text>
     </g>
    </g>
    <g id="ytick_9">
     <g id="line2d_17">
      <g>
       <use xlink:href="#m7770de71e1" x="42.815625" y="17.761818" style="stroke: #000000; stroke-width: 0.8"/>
      </g>
     </g>
     <g id="text_18">
      <text style="font-size: 10px; font-family: 'Microsoft YaHei'; text-anchor: end" x="35.815625" y="21.758693" transform="rotate(-0 35.815625 21.758693)">2.0</text>
     </g>
    </g>
    <g id="text_19">
     <text style="font-size: 10px; font-family: 'Microsoft YaHei'; text-anchor: middle" x="15.19375" y="123.38" transform="rotate(-90 15.19375 123.38)">药材半径 / cm</text>
    </g>
   </g>
   <g id="line2d_18">
    <path d="M 63.076989 17.761818 
L 65.891067 51.211966 
L 68.705145 72.019538 
L 71.519223 95.987753 
L 74.333302 116.531938 
L 79.961458 135.759188 
L 82.775537 146.821442 
L 85.589615 155.513212 
L 88.403693 163.414822 
L 91.217771 169.472723 
L 94.03185 176.584171 
L 96.845928 182.642072 
L 99.660006 187.383038 
L 102.474085 192.387391 
L 105.288163 196.601582 
L 108.102241 199.235452 
L 110.916319 202.396096 
L 113.730398 204.503192 
L 116.544476 207.137062 
L 119.358554 209.244158 
L 122.172633 211.087867 
L 124.986711 212.668189 
L 127.800789 214.511898 
L 130.614867 215.828832 
L 139.057102 218.989476 
L 141.871181 219.779637 
L 144.685259 220.833185 
L 150.313415 222.413507 
L 155.941572 223.467055 
L 158.75565 223.730442 
L 164.383807 224.78399 
L 186.896433 226.891086 
L 189.710511 226.891086 
L 192.52459 227.154473 
L 195.338668 227.154473 
L 198.152746 227.41786 
L 200.966824 227.41786 
L 203.780903 227.681247 
L 212.223138 227.681247 
L 215.037216 227.944634 
L 226.293529 227.944634 
L 229.107607 228.208021 
L 257.24839 228.208021 
L 260.062468 228.471408 
L 386.695991 228.471408 
L 389.510069 228.734795 
L 437.3494 228.734795 
L 440.163479 228.998182 
L 468.304261 228.998182 
L 468.304261 228.998182 
" clip-path="url(#pe3283ae7a3)" style="fill: none; stroke: #0f4d92; stroke-width: 1.5; stroke-linecap: square"/>
   </g>
   <g id="patch_3">
    <path d="M 42.815625 239.56 
L 42.815625 7.2 
" style="fill: none; stroke: #000000; stroke-width: 0.8; stroke-linejoin: miter; stroke-linecap: square"/>
   </g>
   <g id="patch_4">
    <path d="M 42.815625 239.56 
L 488.565625 239.56 
" style="fill: none; stroke: #000000; stroke-width: 0.8; stroke-linejoin: miter; stroke-linecap: square"/>
   </g>
  </g>
 </g>
 <defs>
  <clipPath id="pe3283ae7a3">
   <rect x="42.815625" y="7.2" width="445.75" height="232.36"/>
  </clipPath>
 </defs>
</svg>
