<?xml version="1.0" encoding="utf-8" standalone="no"?>
<!DOCTYPE svg PUBLIC "-//W3C//DTD SVG 1.1//EN"
  "http://www.w3.org/Graphics/SVG/1.1/DTD/svg11.dtd">
<!-- Created with matplotlib (https://matplotlib.org/) -->
<svg height="338.103906pt" version="1.1" viewBox="0 0 347.396036 338.103906" width="347.396036pt" xmlns="http://www.w3.org/2000/svg" xmlns:xlink="http://www.w3.org/1999/xlink">
 <metadata>
  <rdf:RDF xmlns:cc="http://creativecommons.org/ns#" xmlns:dc="http://purl.org/dc/elements/1.1/" xmlns:rdf="http://www.w3.org/1999/02/22-rdf-syntax-ns#">
   <cc:Work>
    <dc:type rdf:resource="http://purl.org/dc/dcmitype/StillImage"/>
    <dc:date>2026-09-10T19:58:42.842834</dc:date>
    <dc:format>image/svg+xml</dc:format>
    <dc:creator>
     <cc:Agent>
      <dc:title>Matplotlib v3.3.2, https://matplotlib.org/</dc:title>
     </cc:Agent>
    </dc:creator>
   </cc:Work>
  </rdf:RDF>
 </metadata>
 <defs>
  <style type="text/css">*{stroke-linecap:butt;stroke-linejoin:round;}</style>
 </defs>
 <g id="figure_1">
  <g id="patch_1">
   <path d="M 0 338.103906 
L 347.396036 338.103906 
L 347.396036 0 
L 0 0 
z
" style="fill:#ffffff;"/>
  </g>
  <g id="axes_1">
   <g id="patch_2">
    <path d="M 43.128906 299.9925 
L 334.91838 299.9925 
L 334.91838 22.7925 
L 43.128906 22.7925 
z
" style="fill:#ffffff;"/>
   </g>
   <g id="PathCollection_1">
    <defs>
     <path d="M 0 2.738613 
C 0.726289 2.738613 1.422928 2.450055 1.936492 1.936492 
C 2.450055 1.422928 2.738613 0.726289 2.738613 0 
C 2.738613 -0.726289 2.450055 -1.422928 1.936492 -1.936492 
C 1.422928 -2.450055 0.726289 -2.738613 0 -2.738613 
C -0.726289 -2.738613 -1.422928 -2.450055 -1.936492 -1.936492 
C -2.450055 -1.422928 -2.738613 -0.726289 -2.738613 0 
C -2.738613 0.726289 -2.450055 1.422928 -1.936492 1.936492 
C -1.422928 2.450055 -0.726289 2.738613 0 2.738613 
z
" id="mc2fb59a4a8" style="stroke:#0f4d92;"/>
    </defs>
    <g clip-path="url(#pafcc78c152)">
     <use style="fill:#0f4d92;stroke:#0f4d92;" x="91.760485" xlink:href="#mc2fb59a4a8" y="241.634605"/>
     <use style="fill:#0f4d92;stroke:#0f4d92;" x="286.286801" xlink:href="#mc2fb59a4a8" y="241.634605"/>
     <use style="fill:#0f4d92;stroke:#0f4d92;" x="189.023643" xlink:href="#mc2fb59a4a8" y="73.169874"/>
    </g>
   </g>
   <g id="patch_3">
    <path clip-path="url(#pafcc78c152)" d="M 91.760485 241.634605 
L 286.286801 241.634605 
L 189.023643 73.169874 
z
" style="fill:#0f4d92;opacity:0.15;stroke:#0f4d92;stroke-linejoin:miter;"/>
   </g>
   <g id="patch_4">
    <path clip-path="url(#pafcc78c152)" d="M 140.392064 254.665398 
C 166.186555 254.665398 190.928043 244.417138 209.167503 226.177678 
C 227.406962 207.938219 237.655222 183.196731 237.655222 157.40224 
C 237.655222 131.607749 227.406962 106.866261 209.167503 88.626801 
C 190.928043 70.387342 166.186555 60.139082 140.392064 60.139082 
C 114.597573 60.139082 89.856085 70.387342 71.616626 88.626801 
C 53.377166 106.866261 43.128906 131.607749 43.128906 157.40224 
C 43.128906 183.196731 53.377166 207.938219 71.616626 226.177678 
C 89.856085 244.417138 114.597573 254.665398 140.392064 254.665398 
z
" style="fill:none;stroke:#b64342;stroke-dasharray:3.7,1.6;stroke-dashoffset:0;stroke-linejoin:miter;"/>
   </g>
   <g id="patch_5">
    <path clip-path="url(#pafcc78c152)" d="M 189.023643 297.789516 
C 218.808556 297.789516 247.377565 285.955844 268.438679 264.894731 
C 289.499793 243.833617 301.333464 215.264608 301.333464 185.479695 
C 301.333464 155.694782 289.499793 127.125773 268.438679 106.064659 
C 247.377565 85.003545 218.808556 73.169874 189.023643 73.169874 
C 159.23873 73.169874 130.669721 85.003545 109.608607 106.064659 
C 88.547493 127.125773 76.713822 155.694782 76.713822 185.479695 
C 76.713822 215.264608 88.547493 243.833617 109.608607 264.894731 
C 130.669721 285.955844 159.23873 297.789516 189.023643 297.789516 
z
" style="fill:none;stroke:#0f4d92;stroke-linejoin:miter;"/>
   </g>
   <g id="matplotlib.axis_1">
    <g id="xtick_1">
     <g id="line2d_1">
      <defs>
       <path d="M 0 0 
L 0 3.5 
" id="m09270c885e" style="stroke:#000000;stroke-width:0.8;"/>
      </defs>
      <g>
       <use style="stroke:#000000;stroke-width:0.8;" x="43.128906" xlink:href="#m09270c885e" y="299.9925"/>
      </g>
     </g>
     <g id="text_1">
      <text style="font-family:Microsoft YaHei;font-size:9px;font-stretch:normal;font-style:normal;font-weight:normal;text-anchor:middle;" transform="rotate(-0, 43.128906, 314.186875)" x="43.128906" y="314.186875">-10</text>
     </g>
    </g>
    <g id="xtick_2">
     <g id="line2d_2">
      <g>
       <use style="stroke:#000000;stroke-width:0.8;" x="91.760485" xlink:href="#m09270c885e" y="299.9925"/>
      </g>
     </g>
     <g id="text_2">
      <text style="font-family:Microsoft YaHei;font-size:9px;font-stretch:normal;font-style:normal;font-weight:normal;text-anchor:middle;" transform="rotate(-0, 91.760485, 314.186875)" x="91.760485" y="314.186875">0</text>
     </g>
    </g>
    <g id="xtick_3">
     <g id="line2d_3">
      <g>
       <use style="stroke:#000000;stroke-width:0.8;" x="140.392064" xlink:href="#m09270c885e" y="299.9925"/>
      </g>
     </g>
     <g id="text_3">
      <text style="font-family:Microsoft YaHei;font-size:9px;font-stretch:normal;font-style:normal;font-weight:normal;text-anchor:middle;" transform="rotate(-0, 140.392064, 314.186875)" x="140.392064" y="314.186875">10</text>
     </g>
    </g>
    <g id="xtick_4">
     <g id="line2d_4">
      <g>
       <use style="stroke:#000000;stroke-width:0.8;" x="189.023643" xlink:href="#m09270c885e" y="299.9925"/>
      </g>
     </g>
     <g id="text_4">
      <text style="font-family:Microsoft YaHei;font-size:9px;font-stretch:normal;font-style:normal;font-weight:normal;text-anchor:middle;" transform="rotate(-0, 189.023643, 314.186875)" x="189.023643" y="314.186875">20</text>
     </g>
    </g>
    <g id="xtick_5">
     <g id="line2d_5">
      <g>
       <use style="stroke:#000000;stroke-width:0.8;" x="237.655222" xlink:href="#m09270c885e" y="299.9925"/>
      </g>
     </g>
     <g id="text_5">
      <text style="font-family:Microsoft YaHei;font-size:9px;font-stretch:normal;font-style:normal;font-weight:normal;text-anchor:middle;" transform="rotate(-0, 237.655222, 314.186875)" x="237.655222" y="314.186875">30</text>
     </g>
    </g>
    <g id="xtick_6">
     <g id="line2d_6">
      <g>
       <use style="stroke:#000000;stroke-width:0.8;" x="286.286801" xlink:href="#m09270c885e" y="299.9925"/>
      </g>
     </g>
     <g id="text_6">
      <text style="font-family:Microsoft YaHei;font-size:9px;font-stretch:normal;font-style:normal;font-weight:normal;text-anchor:middle;" transform="rotate(-0, 286.286801, 314.186875)" x="286.286801" y="314.186875">40</text>
     </g>
    </g>
    <g id="xtick_7">
     <g id="line2d_7">
      <g>
       <use style="stroke:#000000;stroke-width:0.8;" x="334.91838" xlink:href="#m09270c885e" y="299.9925"/>
      </g>
     </g>
     <g id="text_7">
      <text style="font-family:Microsoft YaHei;font-size:9px;font-stretch:normal;font-style:normal;font-weight:normal;text-anchor:middle;" transform="rotate(-0, 334.91838, 314.186875)" x="334.91838" y="314.186875">50</text>
     </g>
    </g>
    <g id="text_8">
     <text style="font-family:Microsoft YaHei;font-size:10px;font-stretch:normal;font-style:normal;font-weight:normal;text-anchor:middle;" transform="rotate(-0, 189.023643, 328.417969)" x="189.023643" y="328.417969">x (m)</text>
    </g>
   </g>
   <g id="matplotlib.axis_2">
    <g id="ytick_1">
     <g id="line2d_8">
      <defs>
       <path d="M 0 0 
L -3.5 0 
" id="m014c93bd4f" style="stroke:#000000;stroke-width:0.8;"/>
      </defs>
      <g>
       <use style="stroke:#000000;stroke-width:0.8;" x="43.128906" xlink:href="#m014c93bd4f" y="290.266184"/>
      </g>
     </g>
     <g id="text_9">
      <text style="font-family:Microsoft YaHei;font-size:9px;font-stretch:normal;font-style:normal;font-weight:normal;text-anchor:end;" transform="rotate(-0, 36.128906, 293.863372)" x="36.128906" y="293.863372">-10</text>
     </g>
    </g>
    <g id="ytick_2">
     <g id="line2d_9">
      <g>
       <use style="stroke:#000000;stroke-width:0.8;" x="43.128906" xlink:href="#m014c93bd4f" y="241.634605"/>
      </g>
     </g>
     <g id="text_10">
      <text style="font-family:Microsoft YaHei;font-size:9px;font-stretch:normal;font-style:normal;font-weight:normal;text-anchor:end;" transform="rotate(-0, 36.128906, 245.231793)" x="36.128906" y="245.231793">0</text>
     </g>
    </g>
    <g id="ytick_3">
     <g id="line2d_10">
      <g>
       <use style="stroke:#000000;stroke-width:0.8;" x="43.128906" xlink:href="#m014c93bd4f" y="193.003026"/>
      </g>
     </g>
     <g id="text_11">
      <text style="font-family:Microsoft YaHei;font-size:9px;font-stretch:normal;font-style:normal;font-weight:normal;text-anchor:end;" transform="rotate(-0, 36.128906, 196.600214)" x="36.128906" y="196.600214">10</text>
     </g>
    </g>
    <g id="ytick_4">
     <g id="line2d_11">
      <g>
       <use style="stroke:#000000;stroke-width:0.8;" x="43.128906" xlink:href="#m014c93bd4f" y="144.371447"/>
      </g>
     </g>
     <g id="text_12">
      <text style="font-family:Microsoft YaHei;font-size:9px;font-stretch:normal;font-style:normal;font-weight:normal;text-anchor:end;" transform="rotate(-0, 36.128906, 147.968635)" x="36.128906" y="147.968635">20</text>
     </g>
    </g>
    <g id="ytick_5">
     <g id="line2d_12">
      <g>
       <use style="stroke:#000000;stroke-width:0.8;" x="43.128906" xlink:href="#m014c93bd4f" y="95.739868"/>
      </g>
     </g>
     <g id="text_13">
      <text style="font-family:Microsoft YaHei;font-size:9px;font-stretch:normal;font-style:normal;font-weight:normal;text-anchor:end;" transform="rotate(-0, 36.128906, 99.337056)" x="36.128906" y="99.337056">30</text>
     </g>
    </g>
    <g id="ytick_6">
     <g id="line2d_13">
      <g>
       <use style="stroke:#000000;stroke-width:0.8;" x="43.128906" xlink:href="#m014c93bd4f" y="47.108289"/>
      </g>
     </g>
     <g id="text_14">
      <text style="font-family:Microsoft YaHei;font-size:9px;font-stretch:normal;font-style:normal;font-weight:normal;text-anchor:end;" transform="rotate(-0, 36.128906, 50.705477)" x="36.128906" y="50.705477">40</text>
     </g>
    </g>
    <g id="text_15">
     <text style="font-family:Microsoft YaHei;font-size:10px;font-stretch:normal;font-style:normal;font-weight:normal;text-anchor:middle;" transform="rotate(-90, 15.135938, 161.3925)" x="15.135938" y="161.3925">y (m)</text>
    </g>
   </g>
   <g id="patch_6">
    <path d="M 43.128906 299.9925 
L 43.128906 22.7925 
" style="fill:none;stroke:#000000;stroke-linecap:square;stroke-linejoin:miter;stroke-width:0.8;"/>
   </g>
   <g id="patch_7">
    <path d="M 43.128906 299.9925 
L 334.91838 299.9925 
" style="fill:none;stroke:#000000;stroke-linecap:square;stroke-linejoin:miter;stroke-width:0.8;"/>
   </g>
   <g id="text_16">
    <text style="font-family:Microsoft YaHei;font-size:12px;font-stretch:normal;font-style:normal;font-weight:normal;text-anchor:middle;" transform="rotate(-0, 189.023643, 16.7925)" x="189.023643" y="16.7925">Q1：D≤40 m 仍不足以保证清除</text>
   </g>
   <g id="legend_1">
    <g id="patch_8">
     <path d="M 52.128906 273.026875 
L 72.128906 273.026875 
L 72.128906 266.026875 
L 52.128906 266.026875 
z
" style="fill:none;stroke:#b64342;stroke-dasharray:3.7,1.6;stroke-dashoffset:0;stroke-linejoin:miter;"/>
    </g>
    <g id="text_17">
     <text style="font-family:Microsoft YaHei;font-size:10px;font-stretch:normal;font-style:normal;font-weight:normal;text-anchor:start;" transform="rotate(-0, 80.128906, 273.026875)" x="80.128906" y="273.026875">直径圆 R=20 m</text>
    </g>
    <g id="patch_9">
     <path d="M 52.128906 288.506563 
L 72.128906 288.506563 
L 72.128906 281.506563 
L 52.128906 281.506563 
z
" style="fill:none;stroke:#0f4d92;stroke-linejoin:miter;"/>
    </g>
    <g id="text_18">
     <text style="font-family:Microsoft YaHei;font-size:10px;font-stretch:normal;font-style:normal;font-weight:normal;text-anchor:start;" transform="rotate(-0, 80.128906, 288.506563)" x="80.128906" y="288.506563">最小包围圆 R=23.094 m</text>
    </g>
   </g>
  </g>
 </g>
 <defs>
  <clipPath id="pafcc78c152">
   <rect height="277.2" width="291.789474" x="43.128906" y="22.7925"/>
  </clipPath>
 </defs>
</svg>
